<svg xmlns="http://www.w3.org/2000/svg"  viewBox="0 0 48 48" width="48px" height="48px" baseProfile="basic"><path d="M41,18.5h-0.011c0.038-0.73-0.225-1.457-0.763-1.995L26.828,3.108c-1.511-1.512-4.146-1.512-5.656,0L7.774,16.505	C7.236,17.043,6.973,17.77,7.011,18.5H7v2h0.017c0.014,0.295,0.068,0.59,0.186,0.874C7.613,22.362,8.568,23,9.637,23H16v17v2	c0,1.654,1.346,3,3,3h10c1.654,0,3-1.346,3-3v-2V23h6.363c1.069,0,2.024-0.638,2.433-1.626c0.118-0.284,0.172-0.579,0.186-0.874H41	V18.5z"/><path fill="#fff" d="M39.518,17.212L26.121,3.815c-1.172-1.172-3.071-1.172-4.243,0L8.482,17.212 C7.453,18.241,8.181,20,9.637,20H17v20c0,1.105,0.895,2,2,2h10c1.105,0,2-0.895,2-2V20h7.363 C39.819,20,40.547,18.241,39.518,17.212z"/><path d="M29,43H19c-1.654,0-3-1.346-3-3V21H9.637c-1.069,0-2.024-0.638-2.433-1.626c-0.409-0.987-0.185-2.114,0.571-2.869 L21.172,3.108c1.511-1.512,4.146-1.512,5.656,0l13.397,13.397l0,0c0.756,0.755,0.98,1.882,0.571,2.869 C40.387,20.362,39.432,21,38.363,21H32v19C32,41.654,30.654,43,29,43z M24,3.936c-0.534,0-1.036,0.208-1.414,0.586L9.188,17.919 c-0.27,0.27-0.186,0.572-0.137,0.69C9.1,18.727,9.255,19,9.637,19H17c0.552,0,1,0.448,1,1v20c0,0.551,0.449,1,1,1h10 c0.551,0,1-0.449,1-1V20c0-0.552,0.448-1,1-1h7.363c0.382,0,0.537-0.273,0.585-0.391c0.048-0.118,0.132-0.42-0.137-0.69 L25.414,4.522C25.036,4.144,24.534,3.936,24,3.936z"/></svg>